:SAMPLES-PER-SECOND 30
:FULLY-SPECIFIED
:DEGREES
326
root  5.57935 33.8284 3.99278 5.6703 -41.4332 -0.531097
LeftUpLeg  -16.7121 7.78473 11.8962
LeftLeg  31.9809 12.7249 6.75975
LeftFoot  -0.559357 -0.000694062 -0.142194
LeftToes  -6.85455 1.85109e-006 5.31342e-008
Spine  3.6276 2.73777 3.61462
Spine1  7.21599 5.99289 6.05833
RightShoulder  0.251393 7.45826 9.61113
RightArm  -31.0468 0.848382 59.853
RightForeArm  39.0474 16.4055 2.96254
RightHand  1.22506 -13.2946 -10.108
LeftShoulder1  -0.00518263 2.05371 -6.7722
LeftArm  -19.8423 23.2884 -73.9079
LeftForeArm  30.8277 -34.2346 -6.88536
LeftHand  0.000292723 0.725108 1.24646
HEad  -13.3828 21.4707 -9.53421
RightUpLeg  -11.9994 -15.2861 6.94867
RightLeg  10.298 -12.8054 -1.4672
RightFoot  -0.88298 -0.00230163 0.212819
RightToes  -17.4388 -0.0679735 -0.159928
327
root  5.59244 33.8613 3.983 5.64436 -40.0353 -0.358612
LeftUpLeg  -15.6809 7.55142 11.3994
LeftLeg  33.888 12.0164 6.90643
LeftFoot  -1.43901 -0.00444241 -0.353748
LeftToes  -6.77197 1.85109e-006 5.31342e-008
Spine  3.5061 2.53879 3.42002
Spine1  6.95352 5.50979 5.80394
RightShoulder  0.224604 7.04079 9.7466
RightArm  -30.3003 -0.305699 60.8795
RightForeArm  38.0133 17.4612 3.16696
RightHand  1.17732 -13.1734 -9.7948
LeftShoulder1  -0.00526108 2.0231 -6.77868
LeftArm  -19.9115 23.3753 -73.7555
LeftForeArm  30.8412 -33.3261 -6.65116
LeftHand  -0.000254847 0.832141 1.25832
HEad  -13.4635 20.7051 -9.40697
RightUpLeg  -11.8756 -15.1049 6.7968
RightLeg  9.76743 -14.3203 -1.5042
RightFoot  -0.58294 -0.00188549 0.156019
RightToes  -17.2882 -0.0671862 -0.159839
328
root  5.61714 33.896 3.98355 5.65582 -38.4908 -0.202789
LeftUpLeg  -14.5787 8.00648 10.6462
LeftLeg  35.0003 11.1679 6.71682
LeftFoot  -1.68334 -0.0057216 -0.38947
LeftToes  -7.84161 1.85109e-006 5.31342e-008
Spine  3.35131 2.28455 3.22442
Spine1  6.62647 4.91356 5.55251
RightShoulder  0.198885 6.68692 9.85726
RightArm  -30.4077 -1.82697 61.9413
RightForeArm  37.3215 18.2014 3.3117
RightHand  1.14825 -13.0496 -9.63946
LeftShoulder1  -0.00524344 2.01989 -6.79876
LeftArm  -20.0309 23.5904 -73.5528
LeftForeArm  30.8042 -32.6239 -6.47362
LeftHand  -0.000912973 0.838826 1.17469
HEad  -13.457 19.9294 -9.23773
RightUpLeg  -11.8398 -15.1272 6.6353
RightLeg  9.38058 -15.7535 -1.54463
RightFoot  -0.360468 -0.00200266 0.103495
RightToes  -16.814 -0.0665937 -0.159658
329
root  5.66306 33.9233 3.992 5.78371 -36.7941 -0.198669
LeftUpLeg  -13.4517 8.95834 9.77124
LeftLeg  35.3926 10.6474 6.50834
LeftFoot  -1.50012 -0.00438073 -0.334624
LeftToes  -12.5003 1.85109e-006 5.31342e-008
Spine  3.18149 2.01662 3.07632
Spine1  6.27823 4.29114 5.39034
RightShoulder  0.174197 6.26919 9.8832
RightArm  -30.9822 -3.55505 62.9705
RightForeArm  36.5345 18.5144 3.37376
RightHand  1.15397 -13.0254 -9.70781
LeftShoulder1  -0.00511803 2.00245 -6.84041
LeftArm  -20.0662 23.8419 -73.3504
LeftForeArm  30.9353 -32.1353 -6.35167
LeftHand  -0.000493908 0.861836 1.3281
HEad  -13.486 18.9767 -8.98116
RightUpLeg  -11.8821 -15.3744 6.57324
RightLeg  9.0973 -17.1331 -1.59141
RightFoot  -0.106488 -0.000324326 0.0287431
RightToes  -16.964 -0.0663466 -0.159442
330
root  5.72632 33.9402 4.00895 5.98935 -34.9229 -0.30484
LeftUpLeg  -12.3193 10.4223 8.80957
LeftLeg  34.8963 10.5832 6.34619
LeftFoot  -1.9625 -0.00752156 -0.439153
LeftToes  -18.0774 1.85109e-006 5.31342e-008
Spine  3.01832 1.72742 2.9634
Spine1  5.94504 3.63628 5.27751
RightShoulder  0.155227 5.96428 9.91714
RightArm  -32.0137 -5.45279 63.7937
RightForeArm  36.3494 18.3718 3.34599
RightHand  1.1571 -13.1465 -9.64158
LeftShoulder1  -0.00487314 1.95012 -6.90346
LeftArm  -19.9021 24.0308 -73.0749
LeftForeArm  30.9535 -31.8266 -6.27536
LeftHand  -0.000809293 0.772971 1.22355
HEad  -13.6309 17.9215 -8.69603
RightUpLeg  -11.9886 -15.6779 6.56422
RightLeg  8.92495 -18.5948 -1.66669
RightFoot  0.0124593 4.27422e-005 -0.0147429
RightToes  -16.6822 -0.0665957 -0.159249
331
root  5.81341 33.9513 4.02653 6.21861 -32.9319 -0.430115
LeftUpLeg  -11.2668 12.097 7.75267
LeftLeg  33.5249 11.2552 6.38499
LeftFoot  -2.21307 -0.0101527 -0.525642
LeftToes  -23.331 1.85109e-006 5.31342e-008
Spine  2.87479 1.46381 2.87705
Spine1  5.64929 3.04707 5.18968
RightShoulder  0.142977 5.6385 10.0841
RightArm  -32.9423 -7.36138 64.2177
RightForeArm  36.6242 17.7673 3.22779
RightHand  1.13135 -13.0392 -9.50072
LeftShoulder1  -0.0044971 1.82312 -7.03076
LeftArm  -19.6119 23.9972 -72.7711
LeftForeArm  31.0763 -31.3535 -6.15937
LeftHand  -0.00059995 0.720103 1.2222
HEad  -14.1187 16.658 -8.3814
RightUpLeg  -12.1408 -15.8899 6.53748
RightLeg  8.77735 -20.2987 -1.761
RightFoot  0.347214 0.00158892 -0.146541
RightToes  -17.4091 -0.0674916 -0.159135
332
root  5.91686 33.9569 4.03598 6.45207 -30.7953 -0.474915
LeftUpLeg  -10.3941 14.3708 6.6384
LeftLeg  30.912 13.7204 6.95509
LeftFoot  -1.85217 -0.00863458 -0.534169
LeftToes  -28.0139 1.85109e-006 5.31342e-008
Spine  2.71121 1.16176 2.79127
Spine1  5.30689 2.39572 5.07856
RightShoulder  0.140356 5.59992 10.3535
RightArm  -34.2847 -9.4041 64.3441
RightForeArm  37.7425 16.7748 3.0348
RightHand  1.11565 -13.0238 -9.37593
LeftShoulder1  -0.00397822 1.80811 -7.17141
LeftArm  -19.0772 23.6942 -72.418
LeftForeArm  31.0752 -30.5439 -5.96381
LeftHand  -0.000689193 0.787882 1.14796
HEad  -14.6967 15.3915 -8.03161
RightUpLeg  -12.4667 -16.272 6.46612
RightLeg  8.85958 -21.9777 -1.93
RightFoot  0.518728 0.00277611 -0.235387
RightToes  -17.8311 -0.0697008 -0.159159
333
root  6.0359 33.9722 4.0439 6.63113 -28.7092 -0.282257
LeftUpLeg  -9.70127 16.7641 5.46159
LeftLeg  27.1393 15.8537 6.75724
LeftFoot  -2.60897 -0.0191832 -0.842415
LeftToes  -23.0698 1.85109e-006 5.31342e-008
Spine  2.541 0.891998 2.65355
Spine1  4.95085 1.81186 4.86873
RightShoulder  0.138379 5.50224 10.6711
RightArm  -35.5202 -11.3532 64.2732
RightForeArm  39.1779 15.4625 2.78277
RightHand  1.10772 -12.9877 -9.33398
LeftShoulder1  -0.0033048 1.84629 -7.32852
LeftArm  -18.5425 22.9082 -72.1217
LeftForeArm  31.164 -28.8726 -5.5704
LeftHand  0.000224602 0.815402 1.26162
HEad  -15.1745 14.1144 -7.81842
RightUpLeg  -12.9424 -16.5668 6.17505
RightLeg  9.14745 -23.6765 -2.18651
RightFoot  0.609088 0.00360783 -0.300853
RightToes  -17.8019 -0.0722986 -0.158918
334
root  6.18188 33.9979 4.03687 6.69638 -26.5856 0.0111389
LeftUpLeg  -9.31559 18.5019 4.3843
LeftLeg  23.8929 16.7858 6.0661
LeftFoot  -2.46151 -0.0178603 -0.83132
LeftToes  -20.1505 1.85109e-006 5.31342e-008
Spine  2.38056 0.621051 2.47229
Spine1  4.61769 1.22081 4.58103
RightShoulder  0.135899 5.3218 10.9965
RightArm  -36.8364 -13.2775 64.1376
RightForeArm  40.4915 14.1011 2.52489
RightHand  1.09015 -13.1179 -9.08567
LeftShoulder1  -0.00246517 1.82124 -7.48894
LeftArm  -18.2622 21.9806 -71.8349
LeftForeArm  31.2879 -27.0853 -5.16396
LeftHand  0.000574736 0.811265 1.16812
HEad  -15.9892 12.7317 -7.45294
RightUpLeg  -13.346 -16.6715 5.70035
RightLeg  9.43403 -25.5942 -2.47584
RightFoot  0.992378 0.00776293 -0.518439
RightToes  -18.8495 -0.0750463 -0.164654
335
root  6.35205 34.0196 4.00711 6.73273 -24.2269 0.18158
LeftUpLeg  -9.2689 17.6397 3.68479
LeftLeg  21.8762 17.0321 5.49651
LeftFoot  -2.39198 -0.0170028 -0.814422
LeftToes  -18.0073 1.85109e-006 5.31342e-008
Spine  2.27296 0.240692 2.28043
Spine1  4.3973 0.404858 4.27532
RightShoulder  0.13106 5.29296 11.1915
RightArm  -39.125 -15.0438 64.2471
RightForeArm  42.2723 12.6145 2.24642
RightHand  1.09847 -13.2091 -9.0914
LeftShoulder1  -0.00144762 1.83301 -7.54765
LeftArm  -18.0428 21.2026 -71.4667
LeftForeArm  31.2021 -26.225 -4.9732
LeftHand  0.000817893 0.954095 1.05816
HEad  -16.7874 11.3236 -6.61325
RightUpLeg  -13.6718 -17.0164 5.30146
RightLeg  9.71492 -27.4789 -2.77397
RightFoot  1.2754 0.0121706 -0.715473
RightToes  -19.3161 -0.077679 -0.171301
336
root  6.53704 34.0447 3.96626 6.63943 -22.2321 0.290359
LeftUpLeg  -9.03646 14.9859 3.33184
LeftLeg  20.4776 17.4935 5.18203
LeftFoot  -1.97003 -0.011923 -0.693464
LeftToes  -18.1335 1.85109e-006 5.31342e-008
Spine  2.24329 -0.00118664 2.05909
Spine1  4.34506 -0.136923 3.9222
RightShoulder  0.122362 5.23731 11.2943
RightArm  -41.7441 -16.7209 64.5027
RightForeArm  43.78 11.3382 2.00994
RightHand  1.13386 -13.4189 -9.24163
LeftShoulder1  -0.00024048 1.66077 -7.65741
LeftArm  -17.6612 20.5016 -70.8921
LeftForeArm  30.9184 -25.8513 -4.89141
LeftHand  0.00247304 0.968349 1.18696
HEad  -17.2925 9.71181 -5.57081
RightUpLeg  -13.8099 -17.1954 4.8889
RightLeg  9.90991 -29.2241 -3.0299
RightFoot  1.69756 0.0205743 -1.0107
RightToes  -19.7362 -0.079993 -0.174698
337
root  6.72423 34.0779 3.92878 6.341 -21.0863 0.556396
LeftUpLeg  -8.42114 13.5379 2.8897
LeftLeg  18.8779 17.6394 4.70317
LeftFoot  -1.40213 -0.00621473 -0.507889
LeftToes  -18.1489 1.85109e-006 5.31342e-008
Spine  2.28168 0.01159 1.72985
Spine1  4.43642 -0.163359 3.36073
RightShoulder  0.115756 5.31024 11.3453
RightArm  -44.2083 -18.2921 64.8881
RightForeArm  45.015 10.2329 1.80697
RightHand  1.18693 -13.651 -9.51756
LeftShoulder1  0.00116795 1.63188 -7.8673
LeftArm  -16.851 19.5989 -70.0577
LeftForeArm  30.8054 -25.3375 -4.77965
LeftHand  0.00465394 0.973549 1.35866
HEad  -17.3777 8.21527 -4.45731
RightUpLeg  -13.7464 -17.1712 4.2742
RightLeg  9.97317 -30.3934 -3.17117
RightFoot  2.28962 0.0357918 -1.41294
RightToes  -20.7654 -0.0848875 -0.182947
338
root  6.93184 34.1025 3.88807 6.12981 -20.6437 0.72229
LeftUpLeg  -7.89019 13.6876 2.49376
LeftLeg  17.4416 17.0527 4.10549
LeftFoot  -1.069 -0.00357399 -0.383108
LeftToes  -17.9499 1.85109e-006 5.31342e-008
Spine  2.28532 0.179486 1.43187
Spine1  4.46195 0.136316 2.84785
RightShoulder  0.109262 5.43204 11.1873
RightArm  -45.475 -19.6902 65.3093
RightForeArm  45.5464 9.45495 1.66545
RightHand  1.2197 -13.9336 -9.58236
LeftShoulder1  0.00278935 1.8396 -8.13361
LeftArm  -16.3302 18.7694 -69.3328
LeftForeArm  30.9187 -24.783 -4.66001
LeftHand  0.00688108 0.9029 1.43384
HEad  -16.6623 7.15331 -3.45795
RightUpLeg  -13.7508 -17.2376 3.79129
RightLeg  9.92284 -30.795 -3.18268
RightFoot  2.86907 0.0542183 -1.7868
RightToes  -21.5261 -0.0901286 -0.188978
339
root  7.16031 34.1097 3.83871 6.08632 -20.5042 0.708344
LeftUpLeg  -7.60443 14.4265 2.22273
LeftLeg  16.3795 16.1254 3.57905
LeftFoot  -1.105 -0.00358614 -0.371887
LeftToes  -17.2349 1.85109e-006 5.31342e-008
Spine  2.26029 0.349168 1.2276
Spine1  4.42567 0.454673 2.49345
RightShoulder  0.104981 5.59165 10.8702
RightArm  -46.3358 -20.6403 65.7187
RightForeArm  46.2949 8.86981 1.55894
RightHand  1.23029 -14.1041 -9.54642
LeftShoulder1  0.00463542 2.14196 -8.44302
LeftArm  -16.497 18.0926 -68.8383
LeftForeArm  31.1641 -24.1536 -4.52546
LeftHand  0.00929772 0.823144 1.48505
HEad  -15.2247 6.5781 -2.73869
RightUpLeg  -13.9674 -17.7356 3.55071
RightLeg  9.9325 -30.4812 -3.15858
RightFoot  3.36835 0.0723202 -2.06457
RightToes  -22.1608 -0.0938288 -0.193964
